<mxfile host="app.diagrams.net" modified="2021-06-14T17:25:55.870Z" agent="5.0 (Windows)" etag="S7Vov6uQhOPiZZPG5IX4" version="14.7.7" type="github">
  <diagram id="VJnUXhbjpdGkLwRrKh9C" name="Page-1">
    <mxGraphModel dx="1737" dy="440" grid="1" gridSize="10" guides="1" tooltips="1" connect="1" arrows="1" fold="1" page="1" pageScale="1" pageWidth="827" pageHeight="1169" math="0" shadow="0">
      <root>
        <mxCell id="0" />
        <mxCell id="1" parent="0" />
        <mxCell id="gdb9QcLDyDwKz7civNa3-3" value="" style="edgeStyle=orthogonalEdgeStyle;rounded=0;orthogonalLoop=1;jettySize=auto;html=1;" parent="1" source="gdb9QcLDyDwKz7civNa3-1" target="gdb9QcLDyDwKz7civNa3-2" edge="1">
          <mxGeometry relative="1" as="geometry" />
        </mxCell>
        <mxCell id="gdb9QcLDyDwKz7civNa3-1" value="Kundenanfrage eingetroffen" style="shape=hexagon;perimeter=hexagonPerimeter2;whiteSpace=wrap;html=1;fixedSize=1;fillColor=#f8cecc;strokeColor=#b85450;" parent="1" vertex="1">
          <mxGeometry x="340" y="50" width="120" height="80" as="geometry" />
        </mxCell>
        <mxCell id="gdb9QcLDyDwKz7civNa3-7" value="" style="edgeStyle=orthogonalEdgeStyle;rounded=0;orthogonalLoop=1;jettySize=auto;html=1;" parent="1" source="gdb9QcLDyDwKz7civNa3-2" target="gdb9QcLDyDwKz7civNa3-6" edge="1">
          <mxGeometry relative="1" as="geometry" />
        </mxCell>
        <mxCell id="gdb9QcLDyDwKz7civNa3-2" value="Kundenanfrage erfassen" style="rounded=1;whiteSpace=wrap;html=1;fillColor=#d5e8d4;strokeColor=#82b366;" parent="1" vertex="1">
          <mxGeometry x="340" y="160" width="120" height="60" as="geometry" />
        </mxCell>
        <mxCell id="gdb9QcLDyDwKz7civNa3-42" value="" style="edgeStyle=orthogonalEdgeStyle;rounded=0;orthogonalLoop=1;jettySize=auto;html=1;entryX=0.5;entryY=0;entryDx=0;entryDy=0;" parent="1" source="gdb9QcLDyDwKz7civNa3-6" target="gdb9QcLDyDwKz7civNa3-10" edge="1">
          <mxGeometry relative="1" as="geometry" />
        </mxCell>
        <mxCell id="gdb9QcLDyDwKz7civNa3-6" value="Kundenanfrage erfasst" style="shape=hexagon;perimeter=hexagonPerimeter2;whiteSpace=wrap;html=1;fixedSize=1;fillColor=#f8cecc;strokeColor=#b85450;" parent="1" vertex="1">
          <mxGeometry x="340" y="260" width="120" height="80" as="geometry" />
        </mxCell>
        <mxCell id="gdb9QcLDyDwKz7civNa3-15" value="" style="edgeStyle=orthogonalEdgeStyle;rounded=0;orthogonalLoop=1;jettySize=auto;html=1;" parent="1" source="gdb9QcLDyDwKz7civNa3-10" target="gdb9QcLDyDwKz7civNa3-14" edge="1">
          <mxGeometry relative="1" as="geometry" />
        </mxCell>
        <mxCell id="gdb9QcLDyDwKz7civNa3-10" value="Durchführbarkeit im Lagern prüfen" style="rounded=1;whiteSpace=wrap;html=1;fillColor=#d5e8d4;strokeColor=#82b366;" parent="1" vertex="1">
          <mxGeometry x="340" y="390" width="120" height="60" as="geometry" />
        </mxCell>
        <mxCell id="gdb9QcLDyDwKz7civNa3-38" style="edgeStyle=orthogonalEdgeStyle;rounded=0;orthogonalLoop=1;jettySize=auto;html=1;entryX=0;entryY=0.25;entryDx=0;entryDy=0;exitX=0.5;exitY=1;exitDx=0;exitDy=0;" parent="1" source="gdb9QcLDyDwKz7civNa3-11" target="gdb9QcLDyDwKz7civNa3-10" edge="1">
          <mxGeometry relative="1" as="geometry">
            <mxPoint x="220" y="400" as="targetPoint" />
          </mxGeometry>
        </mxCell>
        <mxCell id="gdb9QcLDyDwKz7civNa3-11" value="Produktionsplan" style="rounded=0;whiteSpace=wrap;html=1;fillColor=#dae8fc;strokeColor=#6c8ebf;" parent="1" vertex="1">
          <mxGeometry x="160" y="330" width="120" height="50" as="geometry" />
        </mxCell>
        <mxCell id="gdb9QcLDyDwKz7civNa3-17" value="" style="edgeStyle=orthogonalEdgeStyle;rounded=0;orthogonalLoop=1;jettySize=auto;html=1;" parent="1" source="gdb9QcLDyDwKz7civNa3-14" target="gdb9QcLDyDwKz7civNa3-16" edge="1">
          <mxGeometry relative="1" as="geometry" />
        </mxCell>
        <mxCell id="gdb9QcLDyDwKz7civNa3-20" value="" style="edgeStyle=orthogonalEdgeStyle;rounded=0;orthogonalLoop=1;jettySize=auto;html=1;entryX=0.5;entryY=0;entryDx=0;entryDy=0;" parent="1" source="gdb9QcLDyDwKz7civNa3-14" target="gdb9QcLDyDwKz7civNa3-18" edge="1">
          <mxGeometry relative="1" as="geometry">
            <mxPoint x="570" y="540" as="targetPoint" />
          </mxGeometry>
        </mxCell>
        <mxCell id="gdb9QcLDyDwKz7civNa3-14" value="X" style="ellipse;whiteSpace=wrap;html=1;rounded=1;" parent="1" vertex="1">
          <mxGeometry x="385" y="470" width="30" height="40" as="geometry" />
        </mxCell>
        <mxCell id="gdb9QcLDyDwKz7civNa3-90" style="edgeStyle=orthogonalEdgeStyle;rounded=0;orthogonalLoop=1;jettySize=auto;html=1;entryX=0.5;entryY=0;entryDx=0;entryDy=0;" parent="1" source="gdb9QcLDyDwKz7civNa3-16" target="gdb9QcLDyDwKz7civNa3-47" edge="1">
          <mxGeometry relative="1" as="geometry" />
        </mxCell>
        <mxCell id="gdb9QcLDyDwKz7civNa3-16" value="Auftrag durchführbar" style="shape=hexagon;perimeter=hexagonPerimeter2;whiteSpace=wrap;html=1;fixedSize=1;fillColor=#f8cecc;strokeColor=#b85450;" parent="1" vertex="1">
          <mxGeometry x="170" y="520" width="120" height="80" as="geometry" />
        </mxCell>
        <mxCell id="gdb9QcLDyDwKz7civNa3-22" value="" style="edgeStyle=orthogonalEdgeStyle;rounded=0;orthogonalLoop=1;jettySize=auto;html=1;entryX=0.5;entryY=0;entryDx=0;entryDy=0;" parent="1" source="gdb9QcLDyDwKz7civNa3-18" target="gdb9QcLDyDwKz7civNa3-23" edge="1">
          <mxGeometry relative="1" as="geometry">
            <mxPoint x="692.5" y="650" as="targetPoint" />
          </mxGeometry>
        </mxCell>
        <mxCell id="gdb9QcLDyDwKz7civNa3-18" value="Auftrag nicht dürchführbar" style="shape=hexagon;perimeter=hexagonPerimeter2;whiteSpace=wrap;html=1;fixedSize=1;fillColor=#f8cecc;strokeColor=#b85450;" parent="1" vertex="1">
          <mxGeometry x="632.5" y="530" width="120" height="80" as="geometry" />
        </mxCell>
        <mxCell id="gdb9QcLDyDwKz7civNa3-26" value="" style="edgeStyle=orthogonalEdgeStyle;rounded=0;orthogonalLoop=1;jettySize=auto;html=1;entryX=0.5;entryY=0;entryDx=0;entryDy=0;" parent="1" source="gdb9QcLDyDwKz7civNa3-23" target="gdb9QcLDyDwKz7civNa3-27" edge="1">
          <mxGeometry relative="1" as="geometry">
            <mxPoint x="692.5" y="810" as="targetPoint" />
          </mxGeometry>
        </mxCell>
        <mxCell id="gdb9QcLDyDwKz7civNa3-23" value="Absage senden " style="whiteSpace=wrap;html=1;rounded=1;fillColor=#d5e8d4;strokeColor=#82b366;" parent="1" vertex="1">
          <mxGeometry x="632.5" y="660" width="120" height="60" as="geometry" />
        </mxCell>
        <mxCell id="gdb9QcLDyDwKz7civNa3-27" value="Absage abgeschickt" style="shape=hexagon;perimeter=hexagonPerimeter2;whiteSpace=wrap;html=1;fixedSize=1;fillColor=#f8cecc;strokeColor=#b85450;" parent="1" vertex="1">
          <mxGeometry x="632.5" y="780" width="120" height="80" as="geometry" />
        </mxCell>
        <mxCell id="gdb9QcLDyDwKz7civNa3-35" value="&amp;nbsp;&amp;nbsp;&amp;nbsp;&amp;nbsp;&amp;nbsp; Produktionsplanung" style="ellipse;whiteSpace=wrap;html=1;fillColor=#fff2cc;strokeColor=#d6b656;" parent="1" vertex="1">
          <mxGeometry x="520" y="390" width="140" height="60" as="geometry" />
        </mxCell>
        <mxCell id="gdb9QcLDyDwKz7civNa3-41" value="" style="endArrow=none;html=1;exitX=1;exitY=0.5;exitDx=0;exitDy=0;entryX=0;entryY=0.5;entryDx=0;entryDy=0;" parent="1" source="gdb9QcLDyDwKz7civNa3-10" target="gdb9QcLDyDwKz7civNa3-35" edge="1">
          <mxGeometry width="50" height="50" relative="1" as="geometry">
            <mxPoint x="380" y="370" as="sourcePoint" />
            <mxPoint x="430" y="320" as="targetPoint" />
          </mxGeometry>
        </mxCell>
        <mxCell id="gdb9QcLDyDwKz7civNa3-43" value="&amp;nbsp;&amp;nbsp;&amp;nbsp;&amp;nbsp; Verkaufsabteilung" style="ellipse;whiteSpace=wrap;html=1;fillColor=#fff2cc;strokeColor=#d6b656;" parent="1" vertex="1">
          <mxGeometry x="520" y="160" width="130" height="60" as="geometry" />
        </mxCell>
        <mxCell id="gdb9QcLDyDwKz7civNa3-44" value="" style="endArrow=none;html=1;exitX=1;exitY=0.5;exitDx=0;exitDy=0;entryX=0;entryY=0.5;entryDx=0;entryDy=0;" parent="1" source="gdb9QcLDyDwKz7civNa3-2" target="gdb9QcLDyDwKz7civNa3-43" edge="1">
          <mxGeometry width="50" height="50" relative="1" as="geometry">
            <mxPoint x="450" y="210" as="sourcePoint" />
            <mxPoint x="510" y="210" as="targetPoint" />
          </mxGeometry>
        </mxCell>
        <mxCell id="gdb9QcLDyDwKz7civNa3-67" style="edgeStyle=orthogonalEdgeStyle;rounded=0;orthogonalLoop=1;jettySize=auto;html=1;entryX=0.5;entryY=0;entryDx=0;entryDy=0;" parent="1" source="gdb9QcLDyDwKz7civNa3-47" target="gdb9QcLDyDwKz7civNa3-65" edge="1">
          <mxGeometry relative="1" as="geometry" />
        </mxCell>
        <mxCell id="gdb9QcLDyDwKz7civNa3-91" style="edgeStyle=orthogonalEdgeStyle;rounded=0;orthogonalLoop=1;jettySize=auto;html=1;exitX=1;exitY=0.5;exitDx=0;exitDy=0;entryX=0.5;entryY=0;entryDx=0;entryDy=0;" parent="1" source="gdb9QcLDyDwKz7civNa3-47" target="gdb9QcLDyDwKz7civNa3-51" edge="1">
          <mxGeometry relative="1" as="geometry" />
        </mxCell>
        <mxCell id="gdb9QcLDyDwKz7civNa3-47" value="&lt;font style=&quot;font-size: 24px&quot;&gt;^&lt;/font&gt;" style="ellipse;whiteSpace=wrap;html=1;rounded=1;" parent="1" vertex="1">
          <mxGeometry x="213.75" y="640" width="32.5" height="40" as="geometry" />
        </mxCell>
        <mxCell id="gdb9QcLDyDwKz7civNa3-53" value="" style="edgeStyle=orthogonalEdgeStyle;rounded=0;orthogonalLoop=1;jettySize=auto;html=1;" parent="1" source="gdb9QcLDyDwKz7civNa3-51" target="gdb9QcLDyDwKz7civNa3-52" edge="1">
          <mxGeometry relative="1" as="geometry" />
        </mxCell>
        <mxCell id="gdb9QcLDyDwKz7civNa3-51" value="&lt;div&gt;Produktions-&lt;/div&gt;&lt;div&gt;kapazitäten reservieren&lt;br&gt;&lt;/div&gt;" style="rounded=1;whiteSpace=wrap;html=1;fillColor=#d5e8d4;strokeColor=#82b366;" parent="1" vertex="1">
          <mxGeometry x="340" y="710" width="120" height="50" as="geometry" />
        </mxCell>
        <mxCell id="gdb9QcLDyDwKz7civNa3-88" style="edgeStyle=orthogonalEdgeStyle;rounded=0;orthogonalLoop=1;jettySize=auto;html=1;entryX=1;entryY=0.5;entryDx=0;entryDy=0;exitX=0.5;exitY=1;exitDx=0;exitDy=0;" parent="1" source="gdb9QcLDyDwKz7civNa3-52" target="gdb9QcLDyDwKz7civNa3-54" edge="1">
          <mxGeometry relative="1" as="geometry" />
        </mxCell>
        <mxCell id="gdb9QcLDyDwKz7civNa3-52" value="&lt;div&gt;Produktions-&lt;/div&gt;&lt;div&gt;kapazitäten&lt;/div&gt;&lt;div&gt;reserviert&lt;br&gt;&lt;/div&gt;" style="shape=hexagon;perimeter=hexagonPerimeter2;whiteSpace=wrap;html=1;fixedSize=1;fillColor=#f8cecc;strokeColor=#b85450;" parent="1" vertex="1">
          <mxGeometry x="340" y="810" width="120" height="80" as="geometry" />
        </mxCell>
        <mxCell id="gdb9QcLDyDwKz7civNa3-58" value="" style="edgeStyle=orthogonalEdgeStyle;rounded=0;orthogonalLoop=1;jettySize=auto;html=1;" parent="1" source="gdb9QcLDyDwKz7civNa3-54" target="gdb9QcLDyDwKz7civNa3-57" edge="1">
          <mxGeometry relative="1" as="geometry" />
        </mxCell>
        <mxCell id="gdb9QcLDyDwKz7civNa3-54" value="&lt;font style=&quot;font-size: 24px&quot;&gt;^&lt;/font&gt;" style="ellipse;whiteSpace=wrap;html=1;rounded=1;" parent="1" vertex="1">
          <mxGeometry x="230" y="920" width="30" height="40" as="geometry" />
        </mxCell>
        <mxCell id="gdb9QcLDyDwKz7civNa3-62" value="" style="edgeStyle=orthogonalEdgeStyle;rounded=0;orthogonalLoop=1;jettySize=auto;html=1;" parent="1" source="gdb9QcLDyDwKz7civNa3-57" target="gdb9QcLDyDwKz7civNa3-61" edge="1">
          <mxGeometry relative="1" as="geometry" />
        </mxCell>
        <mxCell id="gdb9QcLDyDwKz7civNa3-57" value="Produktions-und&amp;nbsp; Verkaufsziele angleichen" style="rounded=1;whiteSpace=wrap;html=1;fillColor=#d5e8d4;strokeColor=#82b366;" parent="1" vertex="1">
          <mxGeometry x="185" y="1042.5" width="120" height="60" as="geometry" />
        </mxCell>
        <mxCell id="gdb9QcLDyDwKz7civNa3-59" value="&lt;div&gt;Produktions-&lt;/div&gt;&lt;div&gt;plannung&lt;br&gt;&lt;/div&gt;" style="ellipse;whiteSpace=wrap;html=1;fillColor=#fff2cc;strokeColor=#d6b656;" parent="1" vertex="1">
          <mxGeometry x="335" y="1050" width="130" height="42.5" as="geometry" />
        </mxCell>
        <mxCell id="gdb9QcLDyDwKz7civNa3-60" value="" style="endArrow=none;html=1;exitX=1;exitY=0.5;exitDx=0;exitDy=0;entryX=0;entryY=0.5;entryDx=0;entryDy=0;" parent="1" source="gdb9QcLDyDwKz7civNa3-57" target="gdb9QcLDyDwKz7civNa3-59" edge="1">
          <mxGeometry width="50" height="50" relative="1" as="geometry">
            <mxPoint x="380" y="1010" as="sourcePoint" />
            <mxPoint x="430" y="960" as="targetPoint" />
          </mxGeometry>
        </mxCell>
        <mxCell id="gdb9QcLDyDwKz7civNa3-61" value="Produktions-und&amp;nbsp; Verkaufsziele angeglichen" style="shape=hexagon;perimeter=hexagonPerimeter2;whiteSpace=wrap;html=1;fixedSize=1;fillColor=#f8cecc;strokeColor=#b85450;" parent="1" vertex="1">
          <mxGeometry x="185" y="1150" width="120" height="80" as="geometry" />
        </mxCell>
        <mxCell id="gdb9QcLDyDwKz7civNa3-63" value="" style="endArrow=none;html=1;exitX=1;exitY=0.5;exitDx=0;exitDy=0;" parent="1" source="gdb9QcLDyDwKz7civNa3-51" edge="1">
          <mxGeometry width="50" height="50" relative="1" as="geometry">
            <mxPoint x="460" y="734.5" as="sourcePoint" />
            <mxPoint x="500" y="735" as="targetPoint" />
          </mxGeometry>
        </mxCell>
        <mxCell id="gdb9QcLDyDwKz7civNa3-64" value="&lt;div&gt;Produktions-&lt;/div&gt;&lt;div&gt;plannung&lt;br&gt;&lt;/div&gt;" style="ellipse;whiteSpace=wrap;html=1;fillColor=#fff2cc;strokeColor=#d6b656;" parent="1" vertex="1">
          <mxGeometry x="480" y="710" width="120" height="45" as="geometry" />
        </mxCell>
        <mxCell id="gdb9QcLDyDwKz7civNa3-68" style="edgeStyle=orthogonalEdgeStyle;rounded=0;orthogonalLoop=1;jettySize=auto;html=1;entryX=0.5;entryY=0;entryDx=0;entryDy=0;" parent="1" source="gdb9QcLDyDwKz7civNa3-65" target="gdb9QcLDyDwKz7civNa3-66" edge="1">
          <mxGeometry relative="1" as="geometry" />
        </mxCell>
        <mxCell id="gdb9QcLDyDwKz7civNa3-65" value="&lt;div&gt;Auftrags-&lt;/div&gt;&lt;div&gt;preis&lt;/div&gt;&lt;div&gt;kalkulieren&lt;br&gt;&lt;/div&gt;" style="rounded=1;whiteSpace=wrap;html=1;fillColor=#d5e8d4;strokeColor=#82b366;" parent="1" vertex="1">
          <mxGeometry x="30" y="710" width="120" height="60" as="geometry" />
        </mxCell>
        <mxCell id="gdb9QcLDyDwKz7civNa3-69" style="edgeStyle=orthogonalEdgeStyle;rounded=0;orthogonalLoop=1;jettySize=auto;html=1;entryX=0;entryY=0.5;entryDx=0;entryDy=0;exitX=0.5;exitY=1;exitDx=0;exitDy=0;" parent="1" source="gdb9QcLDyDwKz7civNa3-66" target="gdb9QcLDyDwKz7civNa3-54" edge="1">
          <mxGeometry relative="1" as="geometry" />
        </mxCell>
        <mxCell id="gdb9QcLDyDwKz7civNa3-66" value="&lt;div&gt;Auftrags-&lt;/div&gt;&lt;div&gt;preis&lt;/div&gt;&lt;div&gt;kalkuliert&lt;br&gt;&lt;/div&gt;" style="shape=hexagon;perimeter=hexagonPerimeter2;whiteSpace=wrap;html=1;fixedSize=1;fillColor=#f8cecc;strokeColor=#b85450;" parent="1" vertex="1">
          <mxGeometry x="30" y="810" width="120" height="80" as="geometry" />
        </mxCell>
        <mxCell id="gdb9QcLDyDwKz7civNa3-70" value="" style="endArrow=none;html=1;exitX=1;exitY=0.5;exitDx=0;exitDy=0;entryX=0;entryY=0.5;entryDx=0;entryDy=0;" parent="1" source="gdb9QcLDyDwKz7civNa3-23" target="gdb9QcLDyDwKz7civNa3-71" edge="1">
          <mxGeometry width="50" height="50" relative="1" as="geometry">
            <mxPoint x="770" y="749.5" as="sourcePoint" />
            <mxPoint x="820" y="749.5" as="targetPoint" />
          </mxGeometry>
        </mxCell>
        <mxCell id="gdb9QcLDyDwKz7civNa3-71" value="&amp;nbsp;&amp;nbsp;&amp;nbsp; Verkaufsabteilung" style="ellipse;whiteSpace=wrap;html=1;fillColor=#fff2cc;strokeColor=#d6b656;" parent="1" vertex="1">
          <mxGeometry x="810" y="667.5" width="130" height="45" as="geometry" />
        </mxCell>
        <mxCell id="gdb9QcLDyDwKz7civNa3-72" value="" style="endArrow=none;html=1;exitX=0;exitY=1;exitDx=0;exitDy=0;entryX=0;entryY=0;entryDx=0;entryDy=0;" parent="1" source="gdb9QcLDyDwKz7civNa3-59" target="gdb9QcLDyDwKz7civNa3-59" edge="1">
          <mxGeometry width="50" height="50" relative="1" as="geometry">
            <mxPoint x="540" y="950" as="sourcePoint" />
            <mxPoint x="590" y="900" as="targetPoint" />
          </mxGeometry>
        </mxCell>
        <mxCell id="gdb9QcLDyDwKz7civNa3-75" value="" style="endArrow=none;html=1;entryX=0;entryY=0;entryDx=0;entryDy=0;exitX=0;exitY=1;exitDx=0;exitDy=0;fillColor=#fff2cc;strokeColor=#d6b656;" parent="1" source="gdb9QcLDyDwKz7civNa3-64" target="gdb9QcLDyDwKz7civNa3-64" edge="1">
          <mxGeometry width="50" height="50" relative="1" as="geometry">
            <mxPoint x="540" y="950" as="sourcePoint" />
            <mxPoint x="590" y="900" as="targetPoint" />
          </mxGeometry>
        </mxCell>
        <mxCell id="gdb9QcLDyDwKz7civNa3-76" value="" style="endArrow=none;html=1;entryX=0;entryY=0;entryDx=0;entryDy=0;exitX=0;exitY=1;exitDx=0;exitDy=0;gradientColor=#ffd966;fillColor=#fff2cc;strokeColor=#d6b656;" parent="1" source="gdb9QcLDyDwKz7civNa3-71" target="gdb9QcLDyDwKz7civNa3-71" edge="1">
          <mxGeometry width="50" height="50" relative="1" as="geometry">
            <mxPoint x="540" y="800" as="sourcePoint" />
            <mxPoint x="590" y="750" as="targetPoint" />
          </mxGeometry>
        </mxCell>
        <mxCell id="gdb9QcLDyDwKz7civNa3-78" value="" style="endArrow=none;html=1;exitX=0;exitY=1;exitDx=0;exitDy=0;entryX=0;entryY=0;entryDx=0;entryDy=0;" parent="1" source="gdb9QcLDyDwKz7civNa3-43" target="gdb9QcLDyDwKz7civNa3-43" edge="1">
          <mxGeometry width="50" height="50" relative="1" as="geometry">
            <mxPoint x="510" y="350" as="sourcePoint" />
            <mxPoint x="540" y="170" as="targetPoint" />
          </mxGeometry>
        </mxCell>
        <mxCell id="gdb9QcLDyDwKz7civNa3-79" value="" style="endArrow=none;html=1;exitX=0;exitY=0;exitDx=0;exitDy=0;entryX=0;entryY=1;entryDx=0;entryDy=0;gradientColor=#ffd966;fillColor=#fff2cc;strokeColor=#d6b656;" parent="1" source="gdb9QcLDyDwKz7civNa3-35" target="gdb9QcLDyDwKz7civNa3-35" edge="1">
          <mxGeometry width="50" height="50" relative="1" as="geometry">
            <mxPoint x="510" y="350" as="sourcePoint" />
            <mxPoint x="560" y="300" as="targetPoint" />
          </mxGeometry>
        </mxCell>
        <mxCell id="gdb9QcLDyDwKz7civNa3-80" value="Produktionsplanungssystem" style="shape=process;whiteSpace=wrap;html=1;backgroundOutline=1;fillColor=#fad7ac;strokeColor=#b46504;" parent="1" vertex="1">
          <mxGeometry x="105" y="160" width="200" height="60" as="geometry" />
        </mxCell>
        <mxCell id="gdb9QcLDyDwKz7civNa3-81" value="" style="endArrow=none;html=1;exitX=0;exitY=0.5;exitDx=0;exitDy=0;entryX=1;entryY=0.5;entryDx=0;entryDy=0;" parent="1" source="gdb9QcLDyDwKz7civNa3-2" target="gdb9QcLDyDwKz7civNa3-80" edge="1">
          <mxGeometry width="50" height="50" relative="1" as="geometry">
            <mxPoint x="580" y="380" as="sourcePoint" />
            <mxPoint x="630" y="330" as="targetPoint" />
          </mxGeometry>
        </mxCell>
        <mxCell id="gdb9QcLDyDwKz7civNa3-82" value="&amp;nbsp;&amp;nbsp;&amp;nbsp; Verkaufsabteilung" style="ellipse;whiteSpace=wrap;html=1;fillColor=#fff2cc;strokeColor=#d6b656;" parent="1" vertex="1">
          <mxGeometry x="-140" y="720" width="130" height="42.5" as="geometry" />
        </mxCell>
        <mxCell id="gdb9QcLDyDwKz7civNa3-83" value="" style="endArrow=none;html=1;exitX=1;exitY=0.5;exitDx=0;exitDy=0;entryX=0;entryY=0.5;entryDx=0;entryDy=0;" parent="1" source="gdb9QcLDyDwKz7civNa3-82" target="gdb9QcLDyDwKz7civNa3-65" edge="1">
          <mxGeometry width="50" height="50" relative="1" as="geometry">
            <mxPoint x="470" y="1010" as="sourcePoint" />
            <mxPoint x="499.99999999999545" y="1010" as="targetPoint" />
            <Array as="points" />
          </mxGeometry>
        </mxCell>
        <mxCell id="gdb9QcLDyDwKz7civNa3-84" value="" style="endArrow=none;html=1;entryX=0;entryY=0;entryDx=0;entryDy=0;exitX=0;exitY=1;exitDx=0;exitDy=0;" parent="1" source="gdb9QcLDyDwKz7civNa3-82" target="gdb9QcLDyDwKz7civNa3-82" edge="1">
          <mxGeometry width="50" height="50" relative="1" as="geometry">
            <mxPoint x="506.45979259933483" y="757.9809626313474" as="sourcePoint" />
            <mxPoint x="506.45979259933483" y="727.0190373686526" as="targetPoint" />
          </mxGeometry>
        </mxCell>
        <mxCell id="gdb9QcLDyDwKz7civNa3-85" value="&amp;nbsp;&amp;nbsp;&amp;nbsp;&amp;nbsp; Verkaufsabteilung" style="ellipse;whiteSpace=wrap;html=1;fillColor=#fff2cc;strokeColor=#d6b656;" parent="1" vertex="1">
          <mxGeometry x="10" y="1048.75" width="140" height="45" as="geometry" />
        </mxCell>
        <mxCell id="gdb9QcLDyDwKz7civNa3-86" value="" style="endArrow=none;html=1;exitX=1;exitY=0.5;exitDx=0;exitDy=0;entryX=0;entryY=0.5;entryDx=0;entryDy=0;" parent="1" source="gdb9QcLDyDwKz7civNa3-85" target="gdb9QcLDyDwKz7civNa3-57" edge="1">
          <mxGeometry width="50" height="50" relative="1" as="geometry">
            <mxPoint x="4.547473508864641e-12" y="751.25" as="sourcePoint" />
            <mxPoint x="40" y="750" as="targetPoint" />
            <Array as="points" />
          </mxGeometry>
        </mxCell>
        <mxCell id="gdb9QcLDyDwKz7civNa3-87" value="" style="endArrow=none;html=1;entryX=0;entryY=0;entryDx=0;entryDy=0;exitX=0;exitY=1;exitDx=0;exitDy=0;" parent="1" source="gdb9QcLDyDwKz7civNa3-85" target="gdb9QcLDyDwKz7civNa3-85" edge="1">
          <mxGeometry width="50" height="50" relative="1" as="geometry">
            <mxPoint x="-111.98672459742443" y="765.9333514366951" as="sourcePoint" />
            <mxPoint x="-111.98672459742443" y="736.5666485633049" as="targetPoint" />
          </mxGeometry>
        </mxCell>
        <mxCell id="smW2dakd10ROSe2AIAeY-1" value="&lt;span class=&quot;markedContent&quot; id=&quot;page3R_mcid3&quot;&gt;&lt;span style=&quot;left: 112.544px ; top: 608.418px ; font-size: 16.7805px ; font-family: sans-serif ; transform: scalex(0.906528)&quot; dir=&quot;ltr&quot;&gt;Produktionsvorgabe&lt;/span&gt;&lt;/span&gt;" style="shape=document;whiteSpace=wrap;html=1;boundedLbl=1;fillColor=#d0cee2;strokeColor=#56517e;" vertex="1" parent="1">
          <mxGeometry x="335" y="992.5" width="160" height="50" as="geometry" />
        </mxCell>
        <mxCell id="smW2dakd10ROSe2AIAeY-2" value="" style="endArrow=none;html=1;entryX=0;entryY=0.5;entryDx=0;entryDy=0;" edge="1" parent="1" source="gdb9QcLDyDwKz7civNa3-57" target="smW2dakd10ROSe2AIAeY-1">
          <mxGeometry width="50" height="50" relative="1" as="geometry">
            <mxPoint x="80" y="1130" as="sourcePoint" />
            <mxPoint x="130" y="1080" as="targetPoint" />
          </mxGeometry>
        </mxCell>
        <mxCell id="smW2dakd10ROSe2AIAeY-3" value="Auftragsmanagementsystem" style="shape=process;whiteSpace=wrap;html=1;backgroundOutline=1;fillColor=#fad7ac;strokeColor=#b46504;" vertex="1" parent="1">
          <mxGeometry x="-60" y="330" width="200" height="50" as="geometry" />
        </mxCell>
        <mxCell id="smW2dakd10ROSe2AIAeY-7" value="" style="endArrow=none;html=1;entryX=0;entryY=0.5;entryDx=0;entryDy=0;" edge="1" parent="1" target="gdb9QcLDyDwKz7civNa3-10">
          <mxGeometry width="50" height="50" relative="1" as="geometry">
            <mxPoint x="40" y="420" as="sourcePoint" />
            <mxPoint x="300" y="290" as="targetPoint" />
          </mxGeometry>
        </mxCell>
        <mxCell id="smW2dakd10ROSe2AIAeY-8" value="" style="endArrow=none;html=1;entryX=0.5;entryY=1;entryDx=0;entryDy=0;" edge="1" parent="1" target="smW2dakd10ROSe2AIAeY-3">
          <mxGeometry width="50" height="50" relative="1" as="geometry">
            <mxPoint x="40" y="420" as="sourcePoint" />
            <mxPoint x="300" y="290" as="targetPoint" />
          </mxGeometry>
        </mxCell>
      </root>
    </mxGraphModel>
  </diagram>
</mxfile>
